<?xml version="1.0" standalone="no"?>
<!DOCTYPE svg PUBLIC "-//W3C//DTD SVG 20010904//EN"
 "http://www.w3.org/TR/2001/REC-SVG-20010904/DTD/svg10.dtd">
<svg version="1.0" xmlns="http://www.w3.org/2000/svg"
 width="1080.000000pt" height="1080.000000pt" viewBox="0 0 1080.000000 1080.000000"
 preserveAspectRatio="xMidYMid meet">
<metadata>
Created by potrace 1.14, written by Peter Selinger 2001-2017
</metadata>
<g transform="translate(0.000000,1080.000000) scale(0.100000,-0.100000)"
fill="#000000" stroke="none">
<path d="M0 5400 l0 -5400 5400 0 5400 0 0 5400 0 5400 -5400 0 -5400 0 0
-5400z m2415 3196 c18 -8 40 -25 49 -38 9 -14 33 -141 61 -318 25 -162 52
-335 60 -385 8 -49 44 -279 80 -510 36 -231 72 -458 79 -504 15 -89 11 -118
-22 -155 -29 -32 -93 -56 -155 -56 -66 0 -112 16 -144 52 -26 27 -25 23 -48
368 -8 124 -21 331 -30 460 -63 967 -65 1010 -49 1042 8 16 30 36 47 43 40 18
32 17 72 1z m6260 -2 c56 -26 65 -59 54 -204 -11 -158 -35 -516 -54 -820 -57
-889 -54 -854 -73 -879 -30 -40 -80 -61 -147 -61 -73 0 -130 24 -169 71 -33
38 -34 15 20 349 19 118 68 431 109 695 133 849 123 797 152 827 14 15 35 29
47 31 11 2 23 5 24 6 2 0 19 -6 37 -15z m-3428 -1224 c77 -113 143 -211 147
-217 5 -10 -5 -13 -42 -13 -45 0 -49 2 -64 33 -16 33 -68 67 -103 67 -34 0
-83 -32 -101 -66 -17 -31 -23 -34 -62 -34 -43 0 -44 1 -37 28 10 38 95 425 95
431 0 13 39 -40 167 -229z m747 20 c25 -113 48 -215 51 -227 5 -20 2 -23 -28
-23 -27 0 -35 5 -44 30 -13 33 -66 70 -103 70 -37 0 -90 -37 -103 -70 -11 -29
-14 -30 -75 -30 -48 0 -61 3 -56 13 26 44 307 448 309 445 2 -2 24 -96 49
-208z m-3086 85 c43 -19 79 -50 97 -85 7 -14 27 -92 44 -175 44 -209 35 -195
130 -195 l79 0 36 -92 c19 -51 83 -217 141 -367 58 -151 105 -279 105 -283 0
-4 -63 -8 -140 -8 -160 0 -149 9 -125 -100 27 -122 15 -188 -39 -224 -14 -9
-37 -16 -51 -16 -15 0 -168 44 -341 97 -194 59 -318 93 -324 87 -5 -5 -67
-146 -139 -313 l-130 -304 46 -41 c53 -47 93 -124 93 -181 0 -68 -60 -326 -86
-372 -27 -47 -87 -101 -122 -110 -16 -4 -21 -10 -17 -22 3 -9 41 -103 83 -208
73 -182 79 -193 103 -193 44 0 112 -29 147 -63 43 -41 114 -188 120 -249 2
-26 0 -60 -6 -77 -11 -31 -11 -31 26 -31 20 0 57 -10 82 -21 25 -11 135 -52
245 -91 110 -39 208 -78 219 -87 26 -23 74 -121 91 -188 18 -67 21 -206 6
-245 -9 -23 -89 -146 -112 -172 -4 -5 -22 2 -39 14 l-32 23 6 86 c4 47 9 102
12 122 l6 35 -84 26 c-45 15 -168 53 -271 86 l-189 61 -133 -97 -134 -97 0
-287 -1 -286 33 -7 c55 -11 181 -37 195 -41 7 -2 12 -20 12 -43 l0 -40 -101
-32 c-95 -30 -105 -32 -157 -21 -69 15 -126 53 -157 106 -13 23 -60 167 -105
321 -77 261 -82 284 -77 348 6 64 5 67 -16 67 -30 0 -118 42 -139 67 -36 40
-160 280 -170 328 -8 36 -7 62 1 91 13 49 69 117 111 134 17 7 29 18 27 24 -2
6 -59 164 -127 351 -68 187 -126 343 -130 348 -3 4 -44 12 -91 17 -131 17
-155 26 -214 83 -41 40 -57 65 -69 106 -9 30 -16 62 -16 71 0 24 96 462 108
492 17 43 76 102 127 127 40 20 57 22 118 18 40 -3 81 -7 91 -9 17 -3 36 38
138 292 65 162 116 300 114 306 -3 7 -28 17 -56 24 -92 22 -145 93 -121 161 9
27 75 153 246 472 24 45 82 154 128 242 106 199 128 220 225 220 l67 0 3 -41
3 -41 -60 -7 c-32 -4 -64 -12 -69 -19 -30 -37 -453 -849 -450 -864 2 -14 150
-63 708 -234 388 -120 715 -220 727 -223 18 -5 24 -1 28 16 3 13 -22 151 -55
308 -64 296 -77 357 -162 755 -62 295 -60 290 -178 287 -77 -2 -80 -2 -80 20
0 13 -3 33 -6 45 -7 26 6 30 94 32 36 1 78 -5 100 -14z m5378 9 c17 -5 19 -11
15 -47 l-6 -42 -70 -1 c-83 -1 -106 -7 -123 -34 -11 -19 -235 -1035 -270
-1227 -10 -61 -13 -96 -6 -103 6 -6 65 8 169 40 88 27 403 124 700 215 601
184 595 182 595 200 0 7 -102 204 -226 438 -246 462 -235 447 -320 447 -34 0
-34 0 -34 46 l0 46 64 -4 c99 -6 128 -31 203 -174 35 -65 87 -164 117 -219
307 -574 305 -569 271 -635 -17 -33 -53 -55 -126 -76 l-49 -15 13 -32 c7 -18
63 -155 123 -305 99 -246 111 -272 129 -266 52 16 147 16 191 -1 114 -43 141
-93 199 -363 50 -237 54 -296 24 -362 -44 -97 -107 -136 -253 -157 -55 -7
-104 -17 -108 -21 -7 -8 -258 -690 -258 -703 0 -4 9 -11 20 -14 33 -10 80 -55
100 -96 14 -26 20 -58 20 -101 0 -60 -4 -70 -80 -208 -44 -80 -90 -153 -103
-163 -33 -28 -99 -57 -128 -57 -25 0 -25 0 -15 -50 8 -39 6 -64 -6 -112 -33
-136 -150 -523 -168 -557 -53 -103 -171 -152 -281 -116 -142 45 -140 44 -137
89 l3 40 118 25 117 24 -2 286 -3 285 -135 98 c-74 54 -140 96 -146 94 -6 -2
-125 -41 -265 -86 -140 -45 -256 -84 -258 -86 -2 -2 1 -57 8 -121 l13 -117
-29 -23 c-15 -13 -31 -23 -35 -23 -12 0 -111 151 -125 190 -6 19 -12 57 -13
83 -1 106 59 285 112 334 13 11 115 54 228 93 113 40 222 81 242 91 21 11 52
19 71 19 l34 0 -4 73 c-5 70 -4 74 46 173 57 113 90 144 176 165 28 6 55 13
60 14 10 2 165 380 165 401 0 6 -13 17 -28 23 -36 15 -76 53 -107 99 -27 43
-85 295 -85 373 0 27 7 66 15 85 20 47 71 111 95 119 11 4 20 13 20 22 0 14
-240 581 -259 612 -11 17 5 21 -366 -94 -299 -93 -320 -97 -363 -60 -50 42
-57 87 -32 200 11 52 20 99 20 105 0 6 -57 10 -156 10 -144 0 -156 1 -151 18
4 15 110 269 261 627 l43 100 84 5 84 5 33 150 c18 83 37 167 43 188 12 46 68
103 112 116 36 10 141 14 173 5z m-1768 -2961 c49 -37 67 -71 67 -128 0 -116
-113 -187 -217 -136 -57 28 -81 63 -86 125 -3 41 1 58 20 86 39 57 85 83 141
77 27 -2 60 -13 75 -24z m-3668 -1497 c118 -25 266 -55 328 -67 l112 -22 0
-279 0 -280 -27 6 c-16 3 -45 8 -65 12 l-38 6 32 -76 c28 -66 36 -78 63 -84
l30 -8 3 -102 c2 -80 0 -102 -11 -102 -16 0 -124 19 -148 26 -9 2 -57 89 -109
197 -51 105 -94 194 -96 195 -1 2 -21 6 -43 9 l-41 6 0 -71 c0 -61 2 -70 20
-75 18 -5 20 -14 20 -107 l0 -103 -36 6 c-20 4 -79 16 -130 28 l-94 21 0 105
c0 89 2 104 15 99 13 -5 15 27 15 245 0 213 -2 250 -15 255 -12 5 -15 26 -15
105 0 54 3 99 7 99 5 0 105 -20 223 -44z m5540 -75 l0 -118 -87 -21 c-78 -18
-89 -19 -100 -6 -10 14 -25 13 -130 -8 l-118 -24 -3 -36 c-3 -36 -3 -37 50
-53 29 -9 127 -35 218 -59 l165 -43 3 -211 2 -210 -52 -12 c-29 -6 -161 -34
-293 -61 -132 -27 -250 -51 -262 -54 -23 -5 -23 -5 -23 117 l0 123 88 17 c79
14 88 14 99 0 11 -14 24 -13 130 9 l118 24 3 37 c4 42 30 30 -250 109 l-188
52 0 211 0 211 223 44 c122 25 256 52 297 62 120 28 110 37 110 -100z m-772
-153 l-3 -122 -70 -12 c-98 -17 -115 -17 -115 2 0 13 -7 15 -32 11 -18 -3 -77
-11 -130 -18 l-98 -12 0 -250 0 -250 36 6 c20 3 78 12 130 19 62 8 94 17 94
25 0 17 27 29 85 37 28 4 63 9 78 12 l28 6 -3 -123 -3 -123 -85 -13 c-113 -17
-530 -73 -541 -73 -5 0 -9 190 -9 454 l0 454 33 6 c17 3 86 12 152 21 66 8
188 26 270 39 83 13 158 24 168 25 16 1 17 -9 15 -121z m-3918 78 c96 -14 218
-31 270 -38 l95 -13 3 -445 c1 -245 0 -450 -2 -456 -4 -10 -391 37 -571 69
l-70 12 -3 454 -2 454 52 -6 c29 -3 132 -17 228 -31z m895 -96 c138 -11 251
-20 253 -20 1 0 2 -73 2 -162 l1 -163 -68 -62 -68 -63 68 -62 68 -63 -1 -167
c0 -128 -3 -168 -12 -168 -34 0 -561 41 -613 48 l-60 7 -3 103 c-3 97 -2 102
18 102 20 0 20 5 20 245 0 237 -1 245 -21 255 -19 10 -20 19 -17 107 l3 96 90
-7 c50 -3 203 -15 340 -26z m2245 -69 c0 -79 -3 -100 -15 -105 -22 -8 -23
-496 -1 -496 16 0 30 -96 24 -165 l-3 -40 -95 -12 c-52 -6 -112 -12 -132 -12
l-38 -1 0 101 c0 92 2 101 20 106 19 5 20 14 20 249 0 210 -2 244 -15 244 -12
0 -15 18 -15 104 l0 105 58 6 c31 3 64 8 72 9 8 2 39 4 68 5 l52 1 0 -99z
m-390 -85 c0 -176 7 -166 -102 -166 l-58 0 0 50 0 50 -40 0 -40 0 0 -250 c0
-216 2 -250 15 -250 12 0 15 -18 15 -105 l0 -105 -77 0 c-43 0 -102 -3 -130
-6 l-53 -7 0 107 c0 88 3 106 15 106 13 0 15 34 15 250 l0 250 -39 0 -40 0 -3
-52 -3 -53 -77 -3 -78 -3 0 154 0 155 188 7 c103 4 237 11 297 15 61 4 129 8
153 9 l42 1 0 -154z m-1099 124 l279 0 0 -459 0 -460 -312 5 c-172 3 -319 7
-325 9 -10 4 -13 104 -13 461 l0 457 46 -7 c26 -3 172 -6 325 -6z"/>
<path d="M1400 5649 c-37 -15 -78 -58 -89 -93 -22 -67 -91 -411 -91 -451 0
-27 8 -54 23 -75 46 -68 58 -72 347 -105 69 -8 199 -23 290 -35 208 -25 246
-25 288 0 50 31 67 69 102 231 31 146 31 152 16 193 -27 70 -56 88 -251 156
-595 207 -577 202 -635 179z"/>
<path d="M2224 4227 c-49 -23 -119 -55 -155 -71 -345 -153 -349 -155 -349
-232 0 -34 12 -66 56 -146 98 -181 105 -188 184 -188 40 0 24 -11 488 332 51
38 82 85 82 124 0 31 -77 180 -105 202 -42 33 -94 27 -201 -21z"/>
<path d="M9405 5619 c-137 -51 -459 -164 -540 -190 -68 -22 -111 -56 -131
-105 -19 -46 -18 -61 16 -220 32 -146 46 -174 100 -211 41 -29 74 -29 290 -3
91 11 221 27 290 35 237 28 271 35 301 56 35 24 69 87 69 125 0 43 -88 442
-105 474 -23 45 -71 73 -129 76 -39 2 -76 -6 -161 -37z"/>
<path d="M8596 4249 c-15 -12 -45 -57 -67 -102 -34 -67 -40 -88 -36 -121 7
-51 24 -67 267 -246 264 -195 257 -190 306 -190 61 0 89 30 169 176 100 185
91 221 -71 293 -54 25 -182 82 -283 128 -199 90 -238 99 -285 62z"/>
<path d="M2845 2811 c-3 -2 -5 -34 -5 -71 l0 -67 108 -22 c59 -12 117 -24 130
-27 21 -6 22 -4 22 67 l0 74 -125 26 c-69 14 -128 23 -130 20z"/>
<path d="M3610 2426 l0 -243 68 -11 c37 -6 97 -14 135 -18 l67 -7 0 246 0 246
-47 6 c-27 4 -72 11 -102 16 -30 5 -70 9 -88 9 l-33 0 0 -244z"/>
<path d="M4390 2511 l0 -69 74 -7 75 -7 55 42 c44 33 56 48 56 70 0 27 -1 27
-82 33 -46 4 -104 7 -130 7 l-48 0 0 -69z"/>
<path d="M4390 2163 l0 -70 48 -6 c26 -3 84 -9 130 -13 l82 -7 0 30 c0 23 -12
39 -56 78 -54 46 -59 48 -130 53 l-74 5 0 -70z"/>
<path d="M5170 2296 l0 -243 31 -7 c17 -3 78 -6 135 -6 l104 0 0 250 0 250
-135 0 -135 0 0 -244z"/>
</g>
</svg>
